<?xml version="1.0" encoding="utf-8"?>
<!-- Generator: Adobe Illustrator 24.3.0, SVG Export Plug-In . SVG Version: 6.00 Build 0)  -->
<svg version="1.1" id="Layer_1" xmlns="http://www.w3.org/2000/svg" xmlns:xlink="http://www.w3.org/1999/xlink" x="0px" y="0px"
	 viewBox="0 0 2360 2321" style="enable-background:new 0 0 2360 2321;" xml:space="preserve">
<style type="text/css">
	.st0{fill:#65DB4D;}
	.st1{opacity:0.6;}
	.st2{fill:#FFFFFF;}
	.st3{opacity:0.29;}
	.st4{fill:#102770;}
	.st5{fill:#4892B9;}
	.st6{fill:#00C3FF;}
	.st7{fill:#DB5684;}
	.st8{fill:#DB3733;}
	.st9{fill:#FBF6F2;}
	.st10{fill:#D73735;}
	.st11{fill:#F4CB00;}
	.st12{fill:#EE472B;}
	.st13{fill:#C13D27;}
	.st14{fill:#0F227A;}
	.st15{fill:#FAB51B;}
	.st16{fill:#D99628;}
	.st17{fill:#F6DC99;}
	.st18{fill:#3377FF;}
	.st19{fill:#FFAC33;}
	.st20{fill:#BEB9C6;}
	.st21{fill:#EBF5FC;}
	.st22{fill:#F5852F;}
	.st23{fill:#F3876B;}
	.st24{fill:#FF2465;}
	.st25{opacity:0.3;}
	.st26{fill:#FCF9FB;}
	.st27{opacity:0.2;}
	.st28{fill:#F752AC;}
	.st29{fill:#C03B94;}
	.st30{fill:#EEC9DF;}
	.st31{fill:#F8D68A;}
	.st32{fill:#DF9726;}
	.st33{fill:#F58528;}
	.st34{fill:#E09826;}
	.st35{fill:#E55BA0;stroke:#0F227A;stroke-width:5.2412;stroke-miterlimit:10;}
	.st36{fill:#C66A28;}
	.st37{fill:#78AF43;}
	.st38{fill:#4C8B40;}
	.st39{fill:#4C8A3F;}
	.st40{fill:#6C8E3C;}
	.st41{fill:#97C33D;}
	.st42{fill:#6C8D3C;}
	.st43{fill:#93A43C;}
	.st44{fill:#E0E782;}
	.st45{fill:#C9DA2A;}
	.st46{fill:#DCE384;}
	.st47{fill:#FFFDF5;}
	.st48{fill:#96A43A;}
	.st49{fill:#DEE37C;}
	.st50{fill:#E4752E;}
	.st51{fill:#F7B18B;}
	.st52{fill:#E1742B;}
	.st53{fill:#97C23D;}
	.st54{fill:#6D923D;}
	.st55{fill:#7998CE;}
	.st56{fill:#3F66B0;}
	.st57{fill:#D2DAE7;}
	.st58{fill:#41CE95;}
	.st59{opacity:0.4;}
	.st60{fill:#46A097;}
	.st61{fill:#BDBBC7;}
	.st62{opacity:0.7;}
	.st63{fill:#F2F2F2;}
	.st64{fill:#F06A33;}
	.st65{fill:#F6B73B;}
	.st66{fill:#737374;}
	.st67{fill:none;stroke:#0F227A;stroke-width:5;stroke-miterlimit:10;}
	.st68{opacity:0.8;}
	.st69{fill:#E35BA0;}
	.st70{fill:#BC3D95;}
	.st71{fill:#C3B9C7;}
	.st72{fill:#DA8EBC;}
	.st73{fill:#F7CDE9;}
	.st74{fill:#E3AACD;}
	.st75{fill:#DF9327;}
	.st76{fill:#B9762A;}
	.st77{fill:#DE9326;}
	.st78{fill:#EE472E;}
	.st79{fill:#FBB149;}
	.st80{fill:#F0592C;}
	.st81{fill:#F2DE8E;}
	.st82{fill:#DC9B27;}
	.st83{fill:#FDFDF9;}
	.st84{fill:#C5B9C5;}
	.st85{fill:#F5852A;}
	.st86{fill:#EFC2A4;}
	.st87{fill:#DE9326;stroke:#0F227A;stroke-width:5;stroke-miterlimit:10;}
	.st88{fill:#F26E33;}
	.st89{fill:#CD4327;}
	.st90{fill:#BF4127;}
	.st91{fill:#F3B83C;}
	.st92{fill:#9F2922;}
	.st93{fill:#391847;}
	.st94{fill:#BF4027;}
	.st95{fill:#DC9527;}
	.st96{fill:#9F2A22;}
	.st97{fill:#F9195A;}
	.st98{fill:#455665;}
	.st99{fill:#5E5475;}
	.st100{fill:#FEF2F4;}
	.st101{fill:#BFCFD9;}
	.st102{fill:#B9BCBB;}
	.st103{fill:#9EC509;}
	.st104{fill:#D6FF30;}
	.st105{fill:#699500;}
	.st106{fill:#CE8F40;}
	.st107{fill:#FFCB27;}
	.st108{fill:#FFEFC6;}
	.st109{fill:#ED2E7A;}
	.st110{fill:#CEA57F;}
	.st111{fill:#5BDCAB;}
	.st112{fill:#B5FCE4;}
	.st113{fill:#29AF74;}
	.st114{fill:#EAC353;}
	.st115{fill:#FFFBFC;}
	.st116{fill:#F672A9;}
	.st117{fill:#FDBAD1;}
	.st118{fill:#7DC74D;}
	.st119{fill:#D4F2BE;}
	.st120{fill:#799146;}
	.st121{fill:#FF9B2E;}
	.st122{fill:#CC7F39;}
	.st123{fill:#F7E7C9;}
	.st124{fill:#82C852;}
	.st125{fill:#EDC391;}
	.st126{fill:#390075;}
	.st127{fill:#F8E9D4;}
	.st128{fill:#CB975C;}
	.st129{fill:#B9BBCC;}
	.st130{fill:#979CAF;}
	.st131{fill:#BEB9BF;}
	.st132{fill:#D9E3EF;}
	.st133{fill:#706F6B;}
	.st134{opacity:0.48;}
	.st135{fill:#2F2D30;}
</style>
<g>
	<g>
		<g>
			<g>
				<path class="st6" d="M217.51,1.45C158.4,49.86,92.52,54.06,74.87,58.39c-3.58,0.88-4.47,6.86-4.47,6.86l24.55,132.73
					c-9.5-1.04-20.2,0.58-30.56,5.23c-24.3,10.9-37.51,34.23-29.49,52.1s34.22,23.52,58.52,12.61c24.3-10.9,37.51-34.23,29.49-52.1
					c-0.24-0.54-0.55-1.04-0.83-1.56L101.46,86.9c47.14,9,103.28-29.14,103.28-29.14l20.99,100.38c-8.38-0.21-17.46,1.54-26.3,5.51
					c-24.3,10.9-37.51,34.23-29.49,52.1c8.02,17.87,34.22,23.52,58.52,12.61c24.3-10.9,37.51-34.23,29.49-52.1
					c-0.2-0.44-0.46-0.84-0.68-1.27L226.98,2.82C226.98,2.82,222.31-2.48,217.51,1.45z"/>
			</g>
			<g>
				<path class="st6" d="M2239.03,1744.53c-67.76,35.29-133.11,25.91-151.28,26.54c-3.69,0.13-5.78,5.8-5.78,5.8l-3.14,134.95
					c-9.08-2.96-19.89-3.57-30.99-1.14c-26.02,5.7-43.72,25.83-39.53,44.96s28.68,30.02,54.7,24.33s43.72-25.83,39.53-44.96
					c-0.13-0.58-0.33-1.13-0.49-1.69l5.89-128.89c44.3,18.46,107.05-7.38,107.05-7.38v102.55c-8.16-1.92-17.41-2.06-26.87,0.01
					c-26.02,5.7-43.72,25.83-39.53,44.96s28.68,30.02,54.7,24.33c26.02-5.7,43.72-25.83,39.53-44.96c-0.1-0.47-0.27-0.92-0.4-1.38
					l5.6-174.73C2248.03,1747.81,2244.53,1741.66,2239.03,1744.53z"/>
			</g>
			<g>
				<path class="st11" d="M78.86,1206.86l-36.98-80.01c53.3,11.42,53.3-26.65,53.3-26.65c-22.84,7.61-72.33-11.42-79.94-15.23
					S0,1084.98,0,1096.4c0,2.97,32.47,75.53,46.72,107.23c-10.98,4.27-21.15,13.43-27.5,26.16c-11.73,23.52-5.98,50.19,12.83,59.57
					c18.82,9.38,43.57-2.08,55.3-25.6C98.13,1242.16,94.14,1217.95,78.86,1206.86z"/>
			</g>
			<g>
				<path class="st97" d="M2285.39,273.5l15.67-86.74c37.07,39.95,58.94,8.79,58.94,8.79c-23.07-6.88-52.66-50.88-56.7-58.37
					c-4.05-7.49-12.47-8.74-19.02,0.61c-1.71,2.43-16.79,80.49-23.32,114.62c-11.44-2.81-25.02-1.15-37.53,5.62
					c-23.11,12.52-33.72,37.66-23.7,56.14c10.02,18.49,36.87,23.32,59.97,10.8C2280.9,313.46,2291.54,291.35,2285.39,273.5z"/>
			</g>
			<g>
				<g>
					<g>
						<path class="st97" d="M491.59,507.68c0,0-27.37-281.66,314.27-412.11c324.2-123.79,807.75-53.82,967.1,75.35
							s164.85,333.69,164.85,333.69l-153.86,21.53c0,0-27.47-296.02-197.82-344.46s-730.82-37.68-807.75,10.76
							S684.97,418.5,684.97,418.5L491.59,507.68z"/>
					</g>
					<g class="st1">
						<path class="st2" d="M805.86,100.57c-94.22,35.98-160.33,83.46-206.73,133.35l6.27,3.3c0,0,285.71-265.39,928.12-154.7
							L1375.09,46C1187.78,24.15,975.11,35.94,805.86,100.57z"/>
					</g>
					<g class="st25">
						<path class="st14" d="M1658.43,135.79c-71.38-52.44-541.29-29.13-755.42-11.65S641.29,316.4,641.29,316.4l60.51,11.17
							c13.58-51.43,37.12-110.26,76.59-135.12c76.93-48.44,637.41-59.2,807.75-10.76c67.8,19.28,112.95,77.8,142.76,141.25l5.3-2.88
							C1734.19,320.05,1729.81,188.23,1658.43,135.79z"/>
					</g>
					<g>
						<path class="st14" d="M1783.95,538.04c-2.66,0-5.27-0.9-7.38-2.57c-2.55-2.02-4.16-4.99-4.46-8.23
							c-0.27-2.88-28.73-288.48-189.22-334.12c-175.6-49.94-727.95-34.81-798.15,9.39c-71.14,44.8-87.75,215.37-87.91,217.08
							c-0.39,4.23-3.01,7.93-6.86,9.7l-193.38,89.18c-3.5,1.61-7.56,1.43-10.9-0.48c-3.34-1.92-5.55-5.33-5.92-9.17
							c-0.29-3-6.71-74.39,29.87-162.83c33.61-81.28,111.56-192.64,292-261.54c151.29-57.77,346.9-78.33,550.8-57.91
							c186.71,18.71,346.73,69.22,428.04,135.13c161.74,131.11,169.02,334.04,169.25,342.61c0.16,6.05-4.25,11.26-10.24,12.1
							l-153.86,21.53C1785.04,538,1784.49,538.04,1783.95,538.04z M1201.09,138.35c156.2,0,312.14,10.23,388.29,31.89
							c157.83,44.88,197.61,284.2,205,342.43l130.79-18.3c-3.85-42.89-27-206.63-159.71-314.21
							c-162.01-131.32-644.3-192.24-955.36-73.48c-136.07,51.96-232.22,137.47-278.03,247.29
							c-24.38,58.44-28.67,109.75-29.04,135.33l170.83-78.78c3.99-34.24,25.21-182.19,98.18-228.14
							C817.5,153.76,1009.49,138.35,1201.09,138.35z"/>
					</g>
				</g>
				<g>
					<path class="st11" d="M305.11,604.75c-40.68,117.02-3.98,235.13,81.98,263.79s147.79-56.58,188.46-173.6
						s44.8-221.51-41.16-250.18C448.44,416.1,345.79,487.73,305.11,604.75z"/>
				</g>
				<g class="st1">
					<path class="st2" d="M516.38,467.88l-2.12-27.92c-81.27-12.49-171.6,56.78-209.14,164.78
						c-19.23,55.32-21.15,110.87-8.76,157.11l0.48-0.07C296.83,761.79,314.14,479.53,516.38,467.88z"/>
				</g>
				<g>
					<path class="st14" d="M420.44,892.08c-13.78,0-26.9-2.58-39-6.61c-37.9-12.64-68.32-40.44-87.98-80.4
						c-28.63-58.19-30.53-133.34-5.21-206.18C332.06,472.88,445,396.14,540.04,427.83c30.59,10.21,52.95,29.29,66.46,56.74
						c23.75,48.27,19.01,121.02-14.09,216.23C539.99,851.6,475.03,892.08,420.44,892.08z M494.85,456.25
						c-68.28,0-140.85,62.21-172.88,154.36c-21.88,62.94-20.56,129.75,3.52,178.7c15.35,31.21,38.6,52.75,67.25,62.3
						c81.08,27.05,135-73.46,165.96-162.53c29.43-84.65,34.88-149.92,15.78-188.75c-9.26-18.83-24.22-31.46-45.72-38.64
						C517.72,458.01,506.34,456.25,494.85,456.25z"/>
				</g>
				<g>
					<path class="st97" d="M725.22,755.53c-33.59,134.39-141.01,224.11-239.93,200.39s-127.42-138.08-93.83-272.47
						s116.56-237.93,215.48-214.21S758.82,621.14,725.22,755.53z"/>
				</g>
				<g class="st25">
					<path class="st14" d="M778.76,767.19c-33.59,134.39-141.01,224.11-239.93,200.39S411.41,829.5,445,695.1
						S561.56,457.17,660.48,480.9S812.35,632.79,778.76,767.19z"/>
				</g>
				<g>
					<path class="st14" d="M517.17,977.52c-12.04,0-24.09-1.38-36.04-4.25c-39.13-9.38-70.78-32.43-91.54-66.65
						c-33.02-54.44-38.5-135.23-15.44-227.5c17.81-71.24,48.9-133.14,87.55-174.29c44.52-47.4,96.19-65.71,149.4-52.95
						c43.15,10.35,79.53,38.21,105.23,80.56c37.37,61.62,46.93,144.5,26.2,227.4C710.6,887.64,614.25,977.52,517.17,977.52z
						 M578.79,483.71c-81.57,0-144.34,101.37-170.01,204.07c-20.44,81.76-16.31,154.78,11.33,200.34
						c15.93,26.26,39.26,43.23,69.35,50.45c89.28,21.41,187.28-62.64,218.46-187.36l0,0c18.16-72.64,9.9-147.5-22.09-200.24
						c-20.64-34.03-49.36-56.29-83.04-64.37C594.63,484.64,586.62,483.71,578.79,483.71z"/>
				</g>
				<g>
					<g>
						
							<ellipse transform="matrix(0.9451 -0.3267 0.3267 0.9451 -497.544 575.2838)" class="st98" cx="1463.59" cy="1768.61" rx="87.81" ry="80.26"/>
						<path class="st14" d="M1458.91,1852.2c-33.35,0-64.41-17.51-78.03-47.46c-8.61-18.93-9.11-40.41-1.42-60.47
							c8.58-22.36,26.75-40.97,49.88-51.06c45.59-19.9,98.07-2.28,116.96,39.27l0,0c8.61,18.93,9.11,40.41,1.42,60.47
							c-8.58,22.36-26.75,40.97-49.88,51.06C1485.11,1849.57,1471.84,1852.2,1458.91,1852.2z M1468.31,1690.01
							c-12.27,0-24.87,2.5-36.97,7.78c-21.9,9.56-39.11,27.15-47.21,48.27c-7.21,18.8-6.75,38.91,1.3,56.61
							c17.77,39.08,67.3,55.57,110.41,36.75c21.9-9.56,39.11-27.15,47.21-48.27c7.21-18.8,6.75-38.91-1.3-56.61l0,0
							C1528.97,1706.44,1499.75,1690.01,1468.31,1690.01z"/>
					</g>
					<g>
						<path class="st14" d="M1458.99,1867.52c-39.22,0-75.9-20.86-92.08-56.43c-10.33-22.7-10.96-48.39-1.78-72.32
							c10.04-26.17,31.2-47.91,58.07-59.63c53.23-23.23,114.72-2.16,137.07,46.98h0c10.33,22.7,10.96,48.39,1.78,72.32
							c-10.04,26.17-31.2,47.91-58.07,59.63C1489.29,1864.49,1473.95,1867.52,1458.99,1867.52z M1468.4,1705.33
							c-10.24,0-20.79,2.1-30.93,6.52c-18.16,7.92-32.38,22.4-39.02,39.7c-5.73,14.94-5.39,30.83,0.94,44.77
							c14.32,31.49,54.84,44.51,90.31,29.04c18.16-7.92,32.38-22.4,39.02-39.7c5.73-14.94,5.39-30.83-0.94-44.77c0,0,0,0,0,0
							C1517.55,1718.41,1493.97,1705.33,1468.4,1705.33z"/>
					</g>
				</g>
				<g>
					<path class="st99" d="M1086.21,1849.28c0,0-35.8,267.03,112.3,318.83c0,0,9.48,130.36,83.98,134.3
						c74.5,3.94,138.77-128.66,109.4-219.17c-29.37-90.51-8.31-17.82-8.31-17.82s-24.85-199.46,16.53-243.91L1086.21,1849.28z"/>
					<path class="st14" d="M1285.71,2304.99c-1.12,0-2.23-0.03-3.35-0.09c-72.13-3.81-84.8-119.09-86.21-134.98
						c-146.53-53.18-112.78-318.29-112.42-320.97l4.96,0.66c-0.36,2.65-33.82,265.6,110.65,316.13l1.55,0.54l0.12,1.64
						c0.09,1.28,10.18,128.21,81.62,131.98c24.9,1.35,50.41-13.37,71.91-41.36c32-41.67,54.3-115.01,34.98-174.54
						c-2.34-7.21-4.32-13.27-6.01-18.38l-2.32,0.48c-8.63-29.77-8.51-29.8-5.61-30.69c0.92-0.29,1.57-0.49,2.43,0.62
						c-5.19-57.67-12.06-181.5,20.27-216.24l3.66,3.41c-34.4,36.94-21.67,186.89-17.18,230.16c2.29,6.87,5.34,16.26,9.51,29.09
						c19.85,61.17-2.97,136.41-35.77,179.12C1336.91,2289.69,1311.19,2304.99,1285.71,2304.99z"/>
				</g>
				<g class="st25">
					<path class="st14" d="M1086.21,1849.28c0,0-35.8,267.03,112.3,318.83c0,0,1.71,23.17,9.23,50.26
						c1.2,0.34-2.56-14.59-1.38-14.27c100.14,26.96,113.02-17.48,130.86-46.61c17.84-29.13-29.74-23.3-29.74-23.3
						c-217.32,36.83-196.29-192.26-196.29-192.26c166.55,23.3,264.31-42.19,264.31-42.19l3.17-9.76
						c3.11-30.02,9.51-55.67,21.42-68.46L1086.21,1849.28z"/>
				</g>
				<g>
					<path class="st14" d="M1297.5,2321c-5.34,0-10.92-0.27-16.76-0.84c-74.32-7.29-94.11-105.35-98.76-139.37
						c-147.81-63.99-114.97-322.66-113.47-333.89c1.31-9.77,10.29-16.63,20.05-15.31c9.77,1.3,16.63,10.28,15.33,20.05
						c-0.34,2.53-32.11,253.23,100.5,299.62c6.69,2.34,11.36,8.41,11.9,15.48c0.09,1.1,10.44,112.26,67.93,117.91
						c34.19,3.36,60.31-5.89,77.66-27.46c33.13-41.19,29.98-116.19,13.02-168.44c-1.19-3.66-2.28-7.01-3.28-10.07
						c-2.4-2.16-4.24-4.99-5.19-8.29c0,0-2.02-6.96-3.95-13.94c-3.05-11.03-6.18-22.33-0.83-29.62
						c-5.51-65.31-9.49-180.01,25.39-217.48c6.71-7.21,18.01-7.62,25.22-0.9s7.62,18.01,0.9,25.22
						c-23.28,25-21.99,137.12-13.41,216.37c2.41,7.18,5.45,16.44,9.1,27.69c20.49,63.13,22.51,150.03-19.16,201.83
						C1373.99,2299.07,1345.63,2321,1297.5,2321z"/>
				</g>
				<g>
					<path class="st99" d="M755.7,1351.1c0,0-106.13,24.99-211.52-26.62c-55.67-27.26-122.59-80.65-169.8-34.41
						c-70.26,68.82-28.34,271.5,222.96,261.92c251.3-9.58,192.75-15.31,192.75-15.31L755.7,1351.1z"/>
					<path class="st14" d="M579.93,1554.82c-156.23,0-209.41-83.25-225.26-120.07c-22.98-53.37-15.6-113.61,17.96-146.47
						c39.89-39.08,93.74-9.19,141.24,17.18c10.94,6.07,21.27,11.81,31.41,16.77c103.39,50.64,208.8,26.69,209.85,26.44l1.15,4.87
						c-1.07,0.25-108.22,24.6-213.2-26.81c-10.25-5.02-20.64-10.79-31.63-16.89c-48.22-26.77-98.08-54.45-135.31-17.98
						c-32.11,31.45-39.05,89.4-16.87,140.92c16.02,37.21,71.29,123.06,237.98,116.71c139.2-5.31,180.77-9.36,192.72-11.57l0.37-3.74
						c5.95,0.58,8.24,1.77,8.17,4.25c-0.11,3.74-0.25,8.4-201.07,16.05C591.47,1554.71,585.62,1554.82,579.93,1554.82z"/>
				</g>
				<g class="st1">
					<path class="st2" d="M688.88,1381.77l-4.02-19.69c-39.14-0.68-89.98-7.77-140.68-32.6c-55.67-27.26-122.59-80.65-169.8-34.41
						c-6.27,6.14-11.61,13.39-16.02,21.42l3.36,18.67c0,0,33.51-31.74,65.43-29.13C498.53,1311.85,575.86,1405.07,688.88,1381.77z"
						/>
				</g>
				<g class="st25">
					<path class="st14" d="M790.09,1536.67L755.7,1351.1c0,0-12.7,2.99-33.67,4.76c-22.16,36.7-31.76,77.85-35.92,106.61
						c-3.38,23.37-21.37,41.93-44.66,45.8c-176.9,29.37-267.08-83.49-297.43-132.8c2.21,83.28,75.03,183.31,253.32,176.52
						C848.64,1542.4,790.09,1536.67,790.09,1536.67z"/>
				</g>
				<g>
					<path class="st14" d="M579.86,1570.17c-165.26,0-222.22-89.7-239.28-129.35c-25.43-59.06-16.67-126.3,21.31-163.5
						c48.07-47.09,109.81-12.81,159.43,14.73c10.76,5.97,20.93,11.62,30.71,16.41c98.06,48.02,198.61,25.51,199.61,25.28
						c9.58-2.23,19.18,3.73,21.42,13.32c2.24,9.58-3.69,19.17-13.27,21.43c-4.59,1.08-113.61,25.83-223.46-27.97
						c-10.6-5.19-21.65-11.32-32.33-17.25c-53.2-29.53-90.1-46.91-117.13-20.43c-27.25,26.69-32.93,78.79-13.51,123.89
						c14.77,34.3,66.1,113.42,223.3,107.45c115.82-4.41,162.18-7.91,180.71-9.99c3.64-3.72,8.86-5.82,14.45-5.25
						c20.92,2.05,22.14,15.81,22.01,19.98c-0.47,15.7-16.59,18.39-21.89,19.28c-6.42,1.07-16.12,2.13-29.66,3.23
						c-33.22,2.7-88.49,5.53-164.27,8.42C591.83,1570.05,585.77,1570.17,579.86,1570.17z M789.82,1554.65h0.05H789.82z"/>
				</g>
				<g>
					<path class="st100" d="M1530.49,1160.27c0,0,116.05,414.59-56.45,635.98c-60.92,78.18-440.17,256.35-731.63-99.05
						c-93.68-114.23,98.73-513.26,98.73-513.26L1530.49,1160.27z"/>
				</g>
				<g class="st25">
					<path class="st14" d="M944.65,1825.38c0,0-11.9-122.35-71.38-186.44c-53.28-57.4-125.26-74.92-153.97-79.82
						c-6.45,57.54-1.72,107.81,23.11,138.08c289.91,353.5,666.62,179.13,730.58,100.32l42.69-106.15
						C1295.59,2000.17,944.65,1825.38,944.65,1825.38z"/>
				</g>
				<g>
					<path class="st99" d="M954.74,1191.7c-55.76,25.43-106.57,53.92-149.29,85c-22.06,53.52-49.58,126.92-68.08,199.49
						c58.46-7.88,149.56-15.47,248.91-6.2c202.25,18.87,420.08,163.72,558.84,190.4c60.42-220.18-14.64-488.46-14.64-488.46
						L954.74,1191.7z"/>
				</g>
				<g class="st25">
					<path class="st14" d="M1529.8,1565.19c-21.57,7.81,15.32,95.2,15.32,95.2c8.14-29.68,13.81-60.23,17.55-90.88
						C1548.95,1565.1,1536.6,1562.72,1529.8,1565.19z"/>
				</g>
				<g>
					<path class="st14" d="M1158.46,1928.46c-115.36,0-281.42-38.95-429.85-219.94c-42.93-52.35-39.22-158.74,11.03-316.21
						c36.35-113.91,84.93-215.11,85.42-216.12c4.28-8.87,14.94-12.6,23.82-8.32c8.88,4.28,12.6,14.95,8.33,23.82
						c-52.13,108.15-171.89,407.75-101,494.19c142.2,173.4,300.41,208.16,408.21,206.85c149.31-1.87,267.97-72.06,295.54-107.45
						c164.9-211.65,54.47-616.15,53.34-620.21c-2.65-9.49,2.89-19.34,12.38-21.99c9.49-2.66,19.33,2.88,21.99,12.37
						c4.84,17.28,116.45,425.86-59.56,651.76c-37.18,47.72-165.62,119.24-323.25,121.21
						C1162.75,1928.45,1160.61,1928.46,1158.46,1928.46z"/>
				</g>
				<g>
					<path class="st99" d="M1541.87,1308.13c0,0,101.14,60.33,217.68-1.53s163.65-88.58,214.14-6.95
						c77.33,125.02-91.63,401.36-452.06,256.99L1541.87,1308.13z"/>
					<path class="st14" d="M1712.68,1599.93c-59.62,0-123.9-13.69-191.98-40.96l1.86-4.64c256.29,102.66,383.18-16.64,415.96-55.64
						c52.68-62.68,66.27-143.98,33.04-197.71c-48.47-78.37-91.22-55.68-205.47,4.99l-5.37,2.85
						c-116.44,61.81-219.11,2.08-220.13,1.47l2.56-4.29c1,0.6,101.35,58.85,215.23-1.59l5.37-2.85
						c113.96-60.51,161.13-85.56,212.07-3.2c34.35,55.54,20.59,139.24-33.47,203.55c-27.55,32.78-77.8,75.26-160.74,91.52
						C1759.41,1597.76,1736.41,1599.93,1712.68,1599.93z"/>
				</g>
				<g class="st1">
					<path class="st2" d="M1932.88,1256.28c-39.55-21.56-87.68,4.86-173.33,50.32c-91.13,48.37-172.84,22.03-204.14,8.24l1.9,26.97
						c0,0,23.79,58.26,172.5,11.65s148.71-99.05,202.24-87.39L1932.88,1256.28z"/>
				</g>
				<g class="st25">
					<path class="st14" d="M724.56,1277.72c0,0-35.69,157.31,333.1,180.61c368.79,23.3,539.29-100.88,559.13-192.26l-529.39-116.52
						L724.56,1277.72z"/>
				</g>
				<g class="st25">
					<path class="st14" d="M1554.85,1547.1l8.05,24.48c286.34,93.19,439.61-87.32,428.62-215.81l-17.32-30.82
						C1939.01,1622.69,1554.85,1547.1,1554.85,1547.1z"/>
				</g>
				<g>
					<path class="st14" d="M1712.68,1615.27c-61.58,0-127.78-14.06-197.69-42.07c-9.15-3.66-13.59-14.05-9.93-23.2
						s14.05-13.59,23.2-9.93c246.72,98.83,367.4-14.26,398.51-51.27c48.48-57.68,61.53-131.6,31.74-179.76
						c-39.54-63.93-66.13-52.77-185.22,10.47l-5.37,2.85c-123.99,65.81-230.7,3.77-235.19,1.09c-8.46-5.05-11.23-16-6.18-24.47
						c5.04-8.45,15.96-11.23,24.42-6.21c3.81,2.24,94.44,54.2,200.22-1.94l5.36-2.85c112.08-59.51,173.82-92.3,232.31,2.28
						c37.79,61.1,23.49,152.18-34.77,221.5c-29.14,34.67-82.2,79.58-169.54,96.7C1761.39,1613.01,1737.4,1615.27,1712.68,1615.27z"
						/>
				</g>
				<g>
					<g>
						<path class="st99" d="M952.66,481.98c0,138.05-97.66,249.96-218.14,249.96c-120.47,0-218.13-111.92-218.13-249.96
							c0-138.04,97.66-249.96,218.13-249.96C854.99,232.02,952.66,343.94,952.66,481.98z"/>
						<path class="st14" d="M734.52,734.44c-121.65,0-220.63-113.25-220.63-252.46c0-139.2,98.97-252.46,220.63-252.46
							c121.66,0,220.64,113.25,220.64,252.46C955.16,621.19,856.18,734.44,734.52,734.44z M734.52,234.52
							c-118.9,0-215.63,111.01-215.63,247.46c0,136.45,96.73,247.46,215.63,247.46c118.9,0,215.64-111.01,215.64-247.46
							C950.16,345.53,853.42,234.52,734.52,234.52z"/>
					</g>
					<g>
						<path class="st101" d="M569.87,336c-2.88,3.38-6.52,5.82-9.62,8.63c-17.12,28.27-29.27,60.76-35.03,95.86
							c0.05-0.1,69.98-201.73,320.27-168.01C845.48,272.48,710.71,170.28,569.87,336z"/>
					</g>
					<g class="st25">
						<path class="st14" d="M936.5,387.55c-9.94-19.71-19.02-36.67-19.02-36.67c-178.34,3.97-344.51,206.44-344.51,206.44
							c-24.32-43.66-40.53-127.04-40.53-127.04l-12.22,5.22c-2.47,15.07-3.82,30.58-3.82,46.48c0,138.05,97.66,249.96,218.13,249.96
							c36.44,0,70.75-10.29,100.94-28.39c31.89-36.36,60.08-93.84,98.23-134.32c2.97-3.16,5.69-6.34,8.17-9.55
							c6.98-24.47,10.79-50.57,10.79-77.7C952.66,448.55,946.89,416.68,936.5,387.55z"/>
					</g>
					<g>
						<path class="st14" d="M734.52,749.79c-130.11,0-235.97-120.14-235.97-267.81c0-147.67,105.86-267.8,235.97-267.8
							c130.12,0,235.98,120.13,235.98,267.8C970.5,629.65,864.64,749.79,734.52,749.79z M734.52,249.87
							c-110.44,0-200.28,104.13-200.28,232.11c0,127.99,89.85,232.12,200.28,232.12c110.44,0,200.29-104.13,200.29-232.12
							C934.81,353.99,844.96,249.87,734.52,249.87z"/>
					</g>
					<g>
						<path class="st101" d="M691.6,292.48c7.58,11.4-6.23,33.37-30.84,49.08c-24.62,15.7-50.71,19.2-58.3,7.81
							c-7.58-11.41,6.24-33.38,30.85-49.08C657.93,284.58,684.02,281.08,691.6,292.48z"/>
					</g>
				</g>
				<g>
					<g>
						<path class="st99" d="M1788.3,373.8c15.76,137.18-73.4,259.63-199.15,273.49c-125.74,13.86-240.44-86.11-256.2-223.29
							c-15.76-137.17,73.38-259.62,199.13-273.48C1657.83,136.65,1772.54,236.63,1788.3,373.8z"/>
						<path class="st14" d="M1565.96,651.06c-117.46,0.01-220.58-97.04-235.49-226.79c-8.06-70.13,11.41-140.54,53.41-193.19
							c37.65-47.2,90.18-76.7,147.93-83.06c126.94-13.99,243.09,87.17,258.98,225.49c8.06,70.12-11.41,140.54-53.4,193.19
							c-37.65,47.2-90.2,76.7-147.95,83.07C1581.56,650.64,1573.72,651.06,1565.96,651.06z M1555.29,151.73
							c-7.59,0-15.24,0.42-22.93,1.26c-56.41,6.22-107.76,35.06-144.57,81.21c-41.17,51.62-60.25,120.69-52.35,189.5
							c15.58,135.6,129.28,234.79,253.45,221.1c56.43-6.22,107.78-35.06,144.59-81.22c41.17-51.62,60.25-120.69,52.34-189.5l0,0
							C1771.21,246.89,1670.24,151.73,1555.29,151.73z"/>
					</g>
					<g>
						<path class="st101" d="M1376.59,293.5c0,0,44.21-161.56,297.45-95.71c0,0-92.35-76.72-181.64-42.9
							C1403.11,188.7,1376.59,293.5,1376.59,293.5z"/>
					</g>
					<g class="st25">
						<path class="st14" d="M1729.56,457.35c-142.51-193.38-323.32-201.04-368.54-199.21c-13.02,36.66-32.91,123.67-28.07,165.85
							c15.76,137.18,130.46,237.15,256.2,223.29c125.75-13.86,214.91-136.3,199.15-273.49c-4.54-39.5-17.33-75.89-36.17-107.4
							C1761.94,372.58,1729.56,457.35,1729.56,457.35z"/>
					</g>
					<g>
						<path class="st14" d="M1565.97,666.41c-125.15,0.01-234.93-102.83-250.74-240.38c-8.52-74.15,12.13-148.69,56.66-204.51
							c40.21-50.41,96.41-81.93,158.25-88.74c135.31-14.91,259.05,92.3,275.9,238.99l0,0c8.52,74.15-12.13,148.69-56.65,204.5
							c-40.21,50.42-96.42,81.94-158.27,88.75C1582.68,665.95,1574.28,666.41,1565.97,666.41z M1555.3,167.08
							c-7.04,0-14.12,0.38-21.26,1.17c-52.33,5.77-100.01,32.59-134.26,75.52c-38.65,48.45-56.54,113.4-49.1,178.19
							c14.62,127.23,120.72,220.33,236.52,207.6c52.34-5.77,100.03-32.6,134.28-75.54c38.64-48.45,56.54-113.39,49.09-178.18l0,0
							C1756.86,256.44,1662.56,167.08,1555.3,167.08z"/>
					</g>
				</g>
				<g>
					<path class="st100" d="M1768.26,1116.06c33.49-48.96,55.91-99.68,64.58-148.98c10.84-41.59,16.59-84.84,16.59-129.24
						c0-325.14-306.55-588.71-684.69-588.71c-366.9,0-666.37,248.12-683.87,559.85c-29.76,47.79-44.83,107.86-41.81,183.26
						c11.9,297.14,341.55,436.96,707.84,436.96c33.6,0,66.85-2.38,99.52-6.83C1472.62,1399.25,1664.99,1281.32,1768.26,1116.06z"/>
					<path class="st14" d="M1146.89,1431.7c-190.17,0-363.49-38.13-488.03-107.37c-139.85-77.75-216.72-192.55-222.3-331.99
						c-2.91-72.64,11.17-134.59,41.85-184.14c18.07-314.95,319.4-561.57,686.33-561.57c378.92,0,687.19,265.22,687.19,591.21
						c0,43.71-5.61,87.4-16.67,129.87c-8.58,48.87-30.43,99.31-64.91,149.72c-106.15,169.84-301.91,284.75-523.69,307.42
						C1213.39,1429.4,1179.79,1431.7,1146.89,1431.7z M1164.73,251.62c-364.53,0-663.82,244.88-681.38,557.49l-0.04,0.64l-0.34,0.54
						c-30.37,48.77-44.31,109.95-41.44,181.84c12.84,320.75,387.99,434.57,705.34,434.57c32.68,0,66.05-2.29,99.18-6.81
						c220.36-22.52,414.74-136.59,520.07-305.15l0.06-0.09c34.08-49.83,55.68-99.63,64.18-148.01c11-42.26,16.56-85.53,16.56-128.81
						C1846.93,514.6,1540.9,251.62,1164.73,251.62z"/>
				</g>
				<g>
					<path class="st102" d="M1312.75,847.65c4.94,83.52-80.14,167.95-198.21,174.65s-217.78-55.58-222.72-139.1
						s86.77-156.66,204.83-163.36C1214.73,713.14,1307.81,764.12,1312.75,847.65z"/>
				</g>
				<g class="st25">
					<path class="st14" d="M1849.43,817.84c0-4.1-0.08-8.19-0.18-12.27l-1.15-3.05c-7.46-108.28-48.84-208.71-115.3-293.44
						c-20.66,55.09-32.72,120.99-32.72,191.86c0,86.42,17.89,165.46,47.52,226.43c26.33,54.18,20.19,118.36-15.17,167.14
						c-100.43,138.54-283.2,270.79-609.32,273.92c-606.72,5.83-683.85-412.22-683.85-412.22s-0.19-0.02-0.54-0.06
						c0.03,5.29,0.13,10.64,0.34,16.1c11.9,297.14,341.55,436.97,707.84,436.97c33.6,0,66.85-2.38,99.52-6.83
						c226.22-23.12,418.59-141.05,521.85-306.3c18.13-26.51,32.99-53.54,44.21-80.57c1.94,1.65,3.9,3.27,5.87,4.81
						c6.48-17.82,11.41-35.62,14.5-53.22c10.84-41.59,16.59-84.84,16.59-129.24c0-2.84-0.14-5.64-0.19-8.47
						C1849.33,825.53,1849.43,821.69,1849.43,817.84z"/>
				</g>
				<g>
					<path class="st14" d="M1146.89,1447.05c-192.73,0-368.7-38.82-495.49-109.3c-144.78-80.49-224.37-199.72-230.18-344.79
						c-2.97-74.15,11.19-137.87,42.1-189.48c20.75-321.23,327.84-572.19,701.42-572.19c387.38,0,702.54,272.1,702.54,606.56
						c0,44.78-5.72,89.54-16.99,133.05c-9.07,50.92-31.65,103.05-67.09,154.95c-108.63,173.59-308.46,291.05-534.67,314.25
						C1214.58,1444.71,1180.39,1447.05,1146.89,1447.05z M1164.73,266.97c-356.39,0-648.96,238.52-666.06,543.01
						c-0.17,2.99-1.09,5.89-2.67,8.43c-29.12,46.76-41.92,103.39-39.13,173.12c12.41,309.88,379.45,419.83,690,419.83
						c31.99,0,64.66-2.25,97.1-6.67c0.2-0.03,0.4-0.05,0.6-0.07c215.59-22.04,405.7-133.44,508.54-298.01
						c0.13-0.21,0.26-0.42,0.4-0.62c32.84-48.02,53.61-95.79,61.73-142c0.08-0.47,0.19-0.94,0.31-1.41
						c10.63-40.79,16.02-82.76,16.02-124.74C1831.58,523.06,1532.44,266.97,1164.73,266.97z"/>
				</g>
				<g>
					<path class="st99" d="M1564.7,616.51c57.01,99.4,34.41,217.86-50.49,264.56c-84.9,46.72-199.94,4-256.95-95.39
						c-57.01-99.4-34.41-217.85,50.49-264.57C1392.64,474.4,1507.69,517.11,1564.7,616.51z"/>
				</g>
				<g>
					<path class="st99" d="M660.23,670.84c-36.64,108.21,8.59,220.29,101.01,250.3c92.43,30.03,197.06-33.37,233.69-141.59
						c36.64-108.22-8.58-220.29-101.01-250.31C801.49,499.22,696.87,562.62,660.23,670.84z"/>
				</g>
				<g>
					<g>
						<g>
							<path class="st14" d="M953.1,734.84c2.05,47.61-23.95,87.36-58.1,88.77c-34.14,1.41-63.48-36.05-65.53-83.66
								c-2.05-47.61,23.96-87.36,58.1-88.77C921.72,649.77,951.05,687.24,953.1,734.84z"/>
							<path class="st14" d="M893.16,826.15c-34.62,0-64.11-38.08-66.17-86.09c-1.22-28.37,7.55-55.65,23.47-72.98
								c10.54-11.46,23.34-17.82,37.02-18.39c35.49-1.4,66.02,37.14,68.12,86.05c1.22,28.38-7.55,55.66-23.48,72.98
								c-10.54,11.46-23.34,17.82-37.02,18.39C894.46,826.13,893.8,826.15,893.16,826.15z M889.45,653.65
								c-0.58,0-1.17,0.01-1.76,0.04c-12.33,0.51-23.93,6.31-33.55,16.78c-15.04,16.37-23.33,42.3-22.16,69.38
								c1.99,46.16,30.21,82.62,62.92,81.27c12.33-0.51,23.92-6.31,33.54-16.77c15.04-16.36,23.33-42.3,22.16-69.38
								C948.65,689.62,921.4,653.65,889.45,653.65z"/>
						</g>
					</g>
					<g>
						<path class="st2" d="M944.02,716.4c0.99,22.91-10.84,41.99-26.43,42.63c-15.58,0.64-29.02-17.39-30-40.3
							c-0.99-22.9,10.85-41.97,26.43-42.62C929.61,675.47,943.04,693.5,944.02,716.4z"/>
						<path class="st14" d="M916.79,761.54c-16.55,0-30.68-18.9-31.7-42.71c-0.62-14.38,3.7-28.06,11.54-36.6
							c4.94-5.38,10.92-8.36,17.29-8.62c16.95-0.69,31.56,18.44,32.6,42.68l0,0c0.62,14.39-3.69,28.08-11.54,36.62
							c-4.94,5.38-10.92,8.36-17.29,8.62C917.39,761.54,917.09,761.54,916.79,761.54z M914.84,678.59c-0.24,0-0.47,0-0.71,0.01
							c-5.01,0.21-9.79,2.63-13.81,7.01c-6.97,7.58-10.79,19.91-10.23,33c0.92,21.49,13.19,38.43,27.4,37.91
							c5.01-0.21,9.79-2.63,13.81-7.01c6.97-7.58,10.79-19.92,10.22-33.02l0,0C940.62,695.38,928.72,678.59,914.84,678.59z"/>
					</g>
				</g>
				<g>
					<g>
						<g>
							<path class="st14" d="M1314.75,712.58c-2.05-47.61,23.97-87.36,58.1-88.77c34.14-1.41,63.48,36.05,65.53,83.66
								c2.05,47.6-23.96,87.35-58.1,88.76C1346.14,797.64,1316.8,760.18,1314.75,712.58z"/>
							<path class="st14" d="M1378.43,798.77c-34.62,0-64.11-38.08-66.18-86.09l0,0c-1.22-28.38,7.55-55.66,23.48-72.99
								c10.54-11.46,23.34-17.82,37.02-18.39c35.44-1.46,66.02,37.14,68.13,86.05c1.22,28.37-7.55,55.65-23.47,72.97
								c-10.54,11.47-23.34,17.83-37.02,18.39C1379.73,798.76,1379.08,798.77,1378.43,798.77z M1317.25,712.47
								c1.99,46.16,30.18,82.52,62.93,81.26c12.33-0.51,23.93-6.31,33.55-16.78c15.04-16.37,23.33-42.3,22.16-69.38
								c-1.99-46.16-30.29-82.61-62.92-81.27c-12.33,0.51-23.92,6.31-33.54,16.78C1324.37,659.45,1316.09,685.39,1317.25,712.47
								L1317.25,712.47z"/>
						</g>
					</g>
					<g>
						<path class="st2" d="M1357.49,682.97c-0.99-22.9,10.85-41.99,26.43-42.63c15.58-0.64,29.02,17.39,30.01,40.3
							c0.99,22.9-10.86,41.98-26.44,42.62C1371.92,723.91,1358.48,705.87,1357.49,682.97z"/>
						<path class="st14" d="M1386.7,725.78c-16.55,0-30.68-18.9-31.7-42.7c-0.62-14.39,3.7-28.07,11.54-36.61
							c4.94-5.38,10.92-8.36,17.28-8.62c16.93-0.79,31.56,18.45,32.61,42.69c0.62,14.38-3.7,28.07-11.54,36.6
							c-4.94,5.38-10.92,8.36-17.29,8.62C1387.3,725.77,1387,725.78,1386.7,725.78z M1384.74,642.82c-0.24,0-0.47,0-0.71,0.01
							c-5.01,0.21-9.79,2.63-13.81,7.01c-6.97,7.58-10.79,19.92-10.23,33.02c0.92,21.49,13.17,38.38,27.4,37.9
							c5.01-0.21,9.79-2.63,13.82-7.01c6.97-7.58,10.79-19.92,10.23-33.01C1410.52,659.62,1398.62,642.82,1384.74,642.82z"/>
					</g>
				</g>
				<g>
					<path class="st100" d="M1305.45,847.94c3.67,85.21-86.46,158.13-201.32,162.87c-114.84,4.74-210.92-60.49-214.59-145.69
						c-3.67-85.21,86.46-158.14,201.31-162.88C1205.71,697.5,1301.78,762.74,1305.45,847.94z"/>
				</g>
				<g>
					<g>
						<path class="st14" d="M1159.57,754.11c1.92,44.59-35.71,69.97-83.37,71.94c-47.67,1.97-87.35-20.22-89.27-64.81
							C985.49,727.8,1158.13,720.67,1159.57,754.11z"/>
					</g>
				</g>
				<g>
					<path class="st14" d="M1068.1,893.36c-6.33,0-11.6-4.99-11.88-11.38l-4.92-112.95c-0.29-6.56,4.8-12.12,11.37-12.4
						c6.53-0.31,12.12,4.8,12.4,11.37l4.92,112.95c0.29,6.56-4.8,12.12-11.37,12.4C1068.45,893.35,1068.27,893.36,1068.1,893.36z"/>
				</g>
				<g>
					<path class="st99" d="M831.63,1656.42c0,0-196.29-151.48-285.51-11.65c-38.09,59.7-65.43,250.53,53.53,308.79
						c0,0,5.95,116.52,77.33,128.18s166.55-122.35,166.55-168.96c0,0,59.48-23.3,59.48-104.87S831.63,1656.42,831.63,1656.42z"/>
					<path class="st14" d="M685.89,2084.94c-3.18,0-6.28-0.25-9.31-0.74c-68.98-11.26-78.37-114.78-79.33-129.05
						c-37.86-19.01-63.73-52.38-76.87-99.21c-22.32-79.51-0.61-174.51,23.64-212.52c20.79-32.59,49.11-52.21,84.17-58.33
						c92.8-16.19,203.86,68.49,204.98,69.35l0.22,0.19c0.72,0.71,72.13,71.59,72.13,153.27c0,74.86-50,102.02-59.52,106.51
						c-1.35,30.39-39.25,95.81-87.85,137.12C732.25,2073.54,707.5,2084.94,685.89,2084.94z M652.93,1588.03
						c-8.05,0-16.05,0.63-23.9,2c-33.61,5.87-60.8,24.74-80.8,56.09c-23.75,37.22-44.97,130.37-23.04,208.48
						c12.9,45.94,38.32,78.48,75.57,96.72l1.32,0.65l0.08,1.47c0.06,1.15,6.68,114.64,75.23,125.83
						c28.01,4.58,57.62-14.63,77.52-31.54c47.71-40.55,86.13-106.98,86.13-134.95v-1.7l1.59-0.62c0.58-0.23,57.9-23.75,57.9-102.54
						c0-78.12-67.45-146.51-70.53-149.59C826.15,1655.4,736.43,1588.03,652.93,1588.03z"/>
				</g>
				<g class="st1">
					<path class="st2" d="M746.64,1610.42c-63.6-26.13-146.03-38.21-195.52,39.35c-21.17,33.18-38.98,106.88-30.23,175.81
						c1.06,0.53,2.04,1.15,3.14,1.64c0,0-5.87-66.11,26.15-125.4c0.81,2.74,2.23,5.06,4.35,6.73c9.08,7.18,27.02,0.14,40.08-15.71
						s16.29-34.52,7.21-41.69c-1.87-1.48-4.14-2.32-6.65-2.64C628.25,1623.14,676.44,1606.64,746.64,1610.42z"/>
				</g>
				<g class="st25">
					<path class="st14" d="M872.59,1724.27c-36.66,122.88-101.53,28.7-101.53,28.7s75.31,115.67-13.91,214.72
						c-75.1,83.37-133.33,59.42-154.35,46.41c11.34,25.04,29.65,47.81,59.18,52.63c71.38,11.65,166.55-122.35,166.55-168.96
						c0,0,59.48-23.3,59.48-104.87C888.01,1768.45,881.57,1745.06,872.59,1724.27z"/>
				</g>
				<g>
					<path class="st14" d="M685.82,2100.28c-3.98,0-7.88-0.31-11.72-0.94c-71.49-11.67-87.85-103.22-91.37-134.57
						c-48.1-27.44-80.23-78.45-90.93-144.84c-11.85-73.54,5.74-152.57,41.83-187.92c47.47-46.49,99.02-68.92,153.18-66.8
						c88.23,3.53,151.22,71.57,157.8,78.95c7.17,7.17,76.24,78.44,76.24,163.74c0,71.93-40.93,104.71-60.6,116.31
						c-7.09,39.37-47.13,100.72-92.18,139.02C739.36,2087.64,711.18,2100.28,685.82,2100.28z M679.82,1600.77
						c-42,0-82.75,19.07-121.21,56.75c-24.13,23.63-42.53,88.72-31.57,156.75c5.48,34,23.22,95.23,80.46,123.27
						c5.82,2.85,9.64,8.64,9.97,15.11c0.05,1,7.01,102.44,62.38,111.47c17.34,2.85,40.47-7.14,65.11-28.09
						c46.82-39.8,80.72-101.25,80.72-123.26c0-7.34,4.5-13.94,11.34-16.62c1.83-0.75,48.15-20.65,48.15-88.25
						c0-73.22-65.36-138.08-66.02-138.73c-0.33-0.33-0.65-0.67-0.96-1.02c-0.71-0.8-57.36-64.39-133.06-67.28
						C683.36,1600.81,681.59,1600.77,679.82,1600.77z"/>
				</g>
				<g>
					<path class="st14" d="M1075.63,900.11c-56.54,0-91.19-27.78-93.35-29.56c-5.07-4.18-5.79-11.68-1.61-16.75
						c4.17-5.05,11.64-5.78,16.71-1.64c2.8,2.27,69.63,54.85,171.06-2.92c5.71-3.25,12.97-1.26,16.23,4.45
						c3.25,5.71,1.26,12.97-4.45,16.22C1140.44,892.57,1105.06,900.11,1075.63,900.11z"/>
				</g>
				<g>
					<path class="st14" d="M767.45,1741.59c16.18,6.04,30.3,16.04,42.94,27.93c12.48,12.01,23.43,26.08,31.78,41.71
						c2.19,3.86,3.85,7.95,5.79,11.95l2.81,6.06c0.79,2.07,1.48,4.17,2.21,6.27c1.45,4.19,2.9,8.41,4.17,12.68l2.78,13
						c0.43,2.17,0.95,4.34,1.31,6.53l0.62,6.58c0.44,4.39,0.75,8.79,0.99,13.18c0.21,8.77-0.54,17.51-1.5,26.16
						c-1.09,9.77-9.89,16.82-19.67,15.73c-8.26-0.92-14.56-7.34-15.67-15.21l-0.31-2.25c-1.06-7.56-1.15-15.06-1.66-22.48
						c-1.13-7.32-0.9-14.84-2.32-22.05l-1.48-10.96l-2.14-10.82l-1.01-5.47l-1.43-5.34c-1.02-3.54-1.75-7.23-2.99-10.72
						c-4.49-14.18-10.81-27.93-18.73-41.1c-7.85-13.19-17.57-25.85-28.98-36.95l-0.2-0.2c-1.02-0.99-1.04-2.62-0.05-3.64
						C765.44,1741.46,766.52,1741.25,767.45,1741.59z"/>
				</g>
				<g>
					<path class="st14" d="M1327.26,2141.66c-7.42,12.94-17.72,23.8-29.85,33.1c-12.21,9.1-26.71,16.13-42.54,19.58l-5.96,1.32
						c-2,0.33-4.04,0.45-6.07,0.67c-4.06,0.28-8.21,1.04-12.3,0.75c-4.1-0.19-8.21-0.5-12.34-0.84c-2.09-0.06-4.05-0.64-6.05-1.06
						l-5.98-1.41c-3.99-0.96-8.01-1.93-11.64-3.66c-3.74-1.51-7.42-3.15-11.06-4.86c-3.78-1.51-6.79-4.07-10.16-6.13
						c-3.25-2.23-6.47-4.49-9.53-6.92c-7.68-6.1-8.97-17.28-2.86-24.96c4.86-6.12,12.93-8.18,19.89-5.69l2.91,1.05
						c5.9,2.12,11.18,5.27,16.63,7.64c5.58,1.89,10.78,4.96,16.37,6.21c10.89,3.9,22.19,5.92,34.04,5.98
						c11.83,0.04,24.22-2.07,36.47-6.34c12.25-4.19,24.55-10.29,36.16-17.76l0.21-0.14c1.2-0.77,2.81-0.43,3.58,0.78
						C1327.73,2139.81,1327.73,2140.85,1327.26,2141.66z"/>
				</g>
				<g>
					<g>
						<path class="st97" d="M2124.85,687.31c10.04,162.2-80.58,299.55-202.41,306.79c-121.83,7.24-174.75-118.61-184.79-280.81
							s26.59-299.32,148.43-306.56C2007.9,399.49,2114.81,525.11,2124.85,687.31z"/>
					</g>
					<g class="st1">
						<path class="st2" d="M1883.95,406.93c-120.11,8.72-156.29,145.12-146.3,306.36c4.82,77.77,19.52,147.12,46.92,197.52
							c7.38,2.49,11.86,3.22,11.86,3.22s-44.27-137.46-24.66-302.05C1791.92,442.73,1878.76,408.81,1883.95,406.93z"/>
					</g>
					<g class="st25">
						<path class="st14" d="M1958.78,418.43c-38.12,2.61-87.26,19.52-110.37,83.93c-40.66,113.32-52.88,300.82,62.63,434.05
							c0,0-62.06,29.26-113.23-4.2c29.27,41.56,70,65.13,124.64,61.89c121.83-7.24,212.46-144.59,202.41-306.79
							C2116.88,558.55,2047.84,452.92,1958.78,418.43z"/>
					</g>
					<g>
						<path class="st14" d="M1912.41,1012.24c-112.42,0-180.64-105.18-192.57-297.85c-5.48-88.43,0.55-208.02,60.34-275.53
							c27.12-30.62,62.39-47.43,104.84-49.95c131.48-7.81,247.02,125.56,257.65,297.29l0,0c6.06,97.96-22.42,190.23-78.15,253.16
							c-39.24,44.31-88,69.4-141.01,72.54C1919.75,1012.13,1916.06,1012.24,1912.41,1012.24z M1896.1,424.28
							c-2.98,0-5.97,0.09-8.97,0.27c-33.1,1.97-59.34,14.39-80.24,37.98c-40.32,45.52-58.58,134.19-51.43,249.66
							c6.31,101.94,36.29,271.77,165.92,264.1c43.34-2.58,83.59-23.52,116.41-60.58c48.76-55.06,74.65-140.03,69.25-227.29l0,0
							C2097.87,540.36,2004.19,424.28,1896.1,424.28z"/>
					</g>
					<g>
						<path class="st11" d="M2151.2,676.81c8.12,131.07-58.78,241.68-149.41,247.07s-127.64-99.06-135.75-230.13
							c-8.12-131.07,15.73-239.13,106.37-244.51C2063.04,443.86,2143.09,545.74,2151.2,676.81z"/>
					</g>
					<g class="st25">
						<path class="st14" d="M2006.79,913.88c55.01-3.27,101.24-45.34,127.29-107.19c-2.31-10.18-5.1-16.3-5.1-16.3
							s-65.23,108.2-144.22,91.08c-84.56-18.32-97.35-321.08-97.35-321.08c-5.67,8.61-10.79,17.31-15.46,26.07
							c-2.93,29.88-3.04,62.77-0.91,97.3C1879.16,814.82,1916.16,919.26,2006.79,913.88z"/>
					</g>
					<g class="st1">
						<path class="st2" d="M2113.38,847.72c27.13-44.73,41.89-105.25,37.83-170.9c-8.12-131.07-88.17-232.95-178.8-227.57
							c-26.39,1.57-47.07,11.89-63,28.89l-10.38,28.29c0,0,95.65-47.77,159.7,24.3c64.05,72.07,86.27,260.21,28.66,329.42
							L2113.38,847.72z"/>
					</g>
					<g>
						<path class="st14" d="M1995.04,941.93c-61.79,0-134.28-44.84-146.81-247.07c-6.71-108.35,8.73-184.57,45.88-226.52
							c20.05-22.64,46.04-35.06,77.24-36.91c100.28-5.96,188.96,103.63,197.66,244.28l0,0c5.11,82.57-18.53,162-63.25,212.49
							c-28.98,32.72-64.56,51.22-102.91,53.49C2000.27,941.85,1997.66,941.93,1995.04,941.93z M1979.34,466.88
							c-1.95,0-3.91,0.06-5.87,0.17c-21.69,1.29-38.91,9.45-52.63,24.95c-30.21,34.11-42.99,103.49-36.98,200.65
							c6.2,100.16,31.51,218.5,116.88,213.42c28.68-1.7,55.76-16.06,78.31-41.53c38.57-43.55,58.88-113.31,54.34-186.62l0,0
							C2126.08,559.8,2057.6,466.88,1979.34,466.88z"/>
					</g>
					<g class="st1">
						
							<ellipse transform="matrix(0.9788 -0.2047 0.2047 0.9788 -87.8484 441.7249)" class="st2" cx="2091.38" cy="645.52" rx="28.02" ry="52.48"/>
					</g>
					<g>
						<path class="st14" d="M1908.27,485.61c-0.48,0-0.97-0.03-1.46-0.09l-47.59-5.83c-6.52-0.8-11.16-6.73-10.36-13.25
							c0.8-6.52,6.73-11.14,13.25-10.36l47.59,5.83c6.52,0.8,11.16,6.73,10.36,13.25C1919.33,481.18,1914.2,485.61,1908.27,485.61z"
							/>
					</g>
					<g>
						<path class="st14" d="M1854.72,718.65h-23.79c-6.57,0-11.9-5.33-11.9-11.9s5.33-11.9,11.9-11.9h23.79
							c6.57,0,11.9,5.33,11.9,11.9S1861.29,718.65,1854.72,718.65z"/>
					</g>
					<g>
						<path class="st14" d="M1884.46,928.4c-6.57,0-11.89-5.32-11.9-11.89s5.32-11.9,11.89-11.9c13.35,0,27.71-1.03,33.16-2.28
							c2.16-2.19,5.16-3.55,8.47-3.55c6.57,0,11.9,5.33,11.9,11.9C1938,924.09,1924.99,928.4,1884.46,928.4z M1914.2,910.65
							c0,0.01,0,0.01,0,0.02C1914.2,910.67,1914.2,910.66,1914.2,910.65z M1914.2,910.64C1914.2,910.64,1914.2,910.64,1914.2,910.64
							C1914.2,910.64,1914.2,910.64,1914.2,910.64z"/>
					</g>
				</g>
				<g class="st1">
					
						<ellipse transform="matrix(0.5131 -0.8583 0.8583 0.5131 -303.2454 599.2963)" class="st2" cx="376.59" cy="566.93" rx="41" ry="20.71"/>
				</g>
				<g>
					<path class="st14" d="M468.56,824.45c-35.86,0-74.54-18.71-76.37-19.61c-5.9-2.89-8.34-10.01-5.45-15.91
						c2.88-5.9,10.01-8.34,15.91-5.47c0.44,0.21,44.68,21.57,76.13,16.43c6.47-1.07,12.6,3.34,13.66,9.82
						c1.06,6.48-3.34,12.6-9.82,13.66C478.03,824.12,473.32,824.45,468.56,824.45z"/>
				</g>
				<g>
					<path class="st14" d="M534.87,599.97c-0.31,0-0.63-0.01-0.95-0.04c-4.29-0.34-7.87-2.92-9.69-6.5
						c-7.48-5.34-38.81-17.87-65.23-26.89c-6.22-2.12-9.54-8.88-7.41-15.1s8.89-9.54,15.1-7.41c81.39,27.79,80.69,36.53,80.02,44.99
						C546.22,595.24,541.01,599.97,534.87,599.97z M525.21,594.21h0.05H525.21z"/>
				</g>
				<g>
					<path class="st14" d="M486.65,695.35c-1,0-2.01-0.13-3.01-0.39l-38.82-10.14c-6.36-1.66-10.16-8.16-8.5-14.52
						s8.17-10.15,14.52-8.51l38.82,10.14c6.36,1.66,10.16,8.16,8.5,14.52C496.75,691.81,491.93,695.35,486.65,695.35z"/>
				</g>
			</g>
		</g>
	</g>
</g>
</svg>
